<svg width="700" height="600" version="1.1" viewBox="0 0 700 600" id="svg10" xmlns="http://www.w3.org/2000/svg" xmlns:svg="http://www.w3.org/2000/svg">
  <path d="M 0,300 V 0 H 700 V 600 H 0 Z" fill="#f4ffff" id="path2" />
  <path d="M 0,100 V 300 H 308 V 224.199 H 282.803 V 195.07 H 308 v -21.484 c 0,-24.945 15.209,-38.543 37.504,-38.543 10.628,0 19.8,0.80391 22.496,1.166 v 26.031 l -15.453,0.041 c -12.113,0 -14.449,5.7533 -14.449,14.162 v 18.627 h 28.855 l -3.7422,29.129 h -25.113 V 300 h 61.902 V 100 h -400 z" fill="#4065b0" id="path8" />
  <path id="path351" style="stroke-width:0.123649" d="M 114.27037,388.51476 170.11125,325 h -13.2325 L 108.39213,380.14898 69.666,325 H 25 L 83.5615,408.39502 25,475 H 38.23325 L 89.43637,416.76081 130.334,475 H 175 l -60.73288,-86.48524 z m -18.12475,20.61499 -5.9335,-8.30427 -47.21075,-66.07788 h 20.3255 l 38.09963,53.32696 5.9335,8.30427 49.525,69.31688 H 136.5595 L 96.14563,409.13293 Z M 0,300 H 200 V 500 H 0 Z" />
  <path d="m 549.95,379.7 c -12.437,-3.5132 -20.732,-14.031 -21.229,-26.919 l -0.22107,-5.7228 -22,-10.64 c -29.066,-14.057 -26.214,-13.111 -31.454,-10.438 -6.0308,3.0767 -14.248,3.6883 -21.445,1.5962 -6.9782,-2.0286 -13.61,-7.7531 -17.415,-15.032 -6.8526,-13.111 -0.57694,-31.423 13.313,-38.848 5.9453,-3.1779 18.272,-3.07 25.309,0.22156 l 5.1608,2.414 19.265,-9.3227 c 10.596,-5.1275 21.569,-10.382 24.385,-11.678 l 5.1197,-2.3549 0.11414,-5.0663 c 0.24576,-10.908 5.6673,-19.967 15.147,-25.308 4.8916,-2.756 6.385,-3.0966 13.5,-3.0794 6.6995,0.0162 8.8128,0.44921 13,2.6636 10.807,5.7154 16.045,14.364 15.937,26.317 -0.0764,8.4768 -2.5416,14.605 -8.1193,20.182 -6.1508,6.1508 -10.457,7.8065 -20.318,7.8125 -8.8918,0.005 -14.479,-1.8873 -19.632,-6.6504 -2.3958,-2.2147 -0.46865,-2.9699 -34.628,13.569 -13.436,6.5054 -13.743,6.7257 -13.068,9.3742 0.88835,3.4837 0.88835,10.941 0,14.425 -0.67538,2.6485 -0.36817,2.8689 13.068,9.3742 34.159,16.539 32.232,15.784 34.628,13.569 4.5278,-4.1855 10.925,-6.6209 18.396,-7.0036 6.312,-0.32331 7.9902,-0.0173 12.794,2.3332 11.231,5.4949 16.894,14.224 16.876,26.015 -0.0125,8.4764 -2.7946,15.496 -8.2473,20.808 -7.1573,6.973 -18.864,10.036 -28.238,7.3881 z" fill="#7d7d7d" id="path6" />
</svg>
