<svg width="118.16" height="112" version="1.1" viewBox="0 0 118.16 112" xmlns="http://www.w3.org/2000/svg">
	<polygon transform="translate(-4.92,-8)" points="64 119.95 64 8 4.92 8 15.09 95.05" fill="#558d6c"/>
	<polygon transform="translate(-4.92,-8)" points="64 119.95 64.05 120 112.98 95.09 123.08 8 64 8 64 8.02" fill="#5aa579"/>
	<polygon transform="translate(-4.92,-8)" points="64 105.97 64 22.11 18.84 22.11 25.33 87.29" fill="#60be86"/>
	<polygon transform="translate(-4.92,-8)" points="64 105.97 64.05 106.02 102.74 87.26 109.16 22.11 64 22.11" fill="#65d693"/>
	<path d="m100.8 46.9-32.58-15.48-1.83-.9-1.12 2.28-6.19 12.61v14.89l9.15-18.08 21.5 9.57-23.09 10.37-.87.47v10.88l2.31-1.13 32.78-15.69a2 2 0 0 0 .92-2v-5.78a2 2 0 0 0-.98-2.01z" fill="#5aa579"/>
	<path d="m51.08 61.39-21.79-9.6 23.3-10.37 1.76-.7v-10.96l-3.4 1.44-33.93 15.69a2.26 2.26 0 0 0-1.28 2v5.77a2.22 2.22 0 0 0 1.24 2l33.44 15.52 2 .9 1.21-2.26 5.45-10.52v-14.89z" fill="#558d6c"/>
</svg>
