<svg width="1200" height="1200" version="1.1" viewBox="0 0 1200 1200" xmlns="http://www.w3.org/2000/svg">
	<circle cx="600" cy="600" r="600" fill="rgba(255,255,255, 0.5)" style="paint-order:markers fill stroke"/>
	<path d="m649.05 469.66c9.0414-16.028 9.1176-37.684.19011-54.032-14.864-27.219-49.156-37.01-76.879-21.949-7.314 3.9732-17.24 13.899-21.213 21.213-9.404 17.311-9.3977 38.096.0167 55.277 3.9721 7.2491 13.943 17.226 21.207 21.22 23.227 12.77 52.715 7.7627 69.615-11.821 2.342-2.7139 5.5204-7.1722 7.0633-9.9073zm126.14 384.94-56.747-56.747-236.88.006-56.744 56.744c-31.209 31.209-56.904 56.583-57.101 56.387-1.0922-1.0922-29.089-87.047-31.686-97.28-4.2605-16.79-6.1412-30.651-6.4017-47.181-.44708-28.365 6.014-50.525 20.909-71.712 3.9783-5.6589 12.201-14.311 40.476-42.585l35.483-35.483-1.6469-14.857c-8.3435-75.271-2.4117-154.45 17.047-227.54 4.9295-18.517 18.279-57.393 25.154-73.253 11.925-27.509 28.124-56.79 42.816-77.393 13.634-19.119 17.661-23.647 53.826-60.51l36.311-37.013 36.311 37.013c36.222 36.922 40.248 41.45 53.811 60.525 46.119 64.863 77.614 158.01 86.235 255.05 3.5642 40.122 2.9641 88.067-1.588 126.87l-1.299 11.073 35.502 35.502c38.239 38.239 41.497 42.008 49.267 56.997 4.6293 8.9299 8.8006 21.624 10.585 32.212 3.2545 19.311 1.3516 47.359-4.9213 72.539-2.3778 9.5449-30.529 95.941-31.615 97.027-.19635.19635-25.893-25.179-57.104-56.39z" fill="#0036ab" stroke="#000" stroke-width="5"/>
	<path d="m599.81 1073.8c-1.1449-1.1449-14.792-22.377-20.045-31.186-20.037-33.6-34.154-68.279-37.446-91.984-.80416-5.791-1.4351-20.259-1.402-32.151l.0601-21.622 118.21.012-.2241 25.652c-.15622 17.881-.89765 29.03-2.4475 36.804-4.185 20.991-13.199 44.163-26.565 68.289-9.1323 16.485-29.157 47.168-30.141 46.185z" fill="#ff8901"/>
	<path d="m599.85 1046.7c-.96972-.9698-12.529-18.953-16.978-26.414-16.971-28.459-28.929-57.832-31.716-77.911-.68112-4.905-1.2155-17.159-1.1874-27.232l.0509-18.314 100.12.01-.18982 21.727c-.13233 15.145-.7603 24.588-2.0731 31.173-3.5446 17.779-11.179 37.407-22.5 57.841-7.7351 13.962-24.696 39.951-25.53 39.118z" fill="#ffe401" stroke-width=".847"/>
</svg>
