<svg width="1306.7" height="1306.7" version="1.1" viewBox="0 0 1306.7 1306.7" xmlns="http://www.w3.org/2000/svg">
	<g stroke-width="1.3333">
		<path d="m276 1305.2c-91.694-5.4602-174.55-53.488-227.12-131.65-11.409-16.963-26.347-48.023-33.249-69.132-10.566-32.315-14.548-57.866-14.509-93.108.028619-26.009 2.0372-43.555 7.7846-68 9.9514-42.326 31.685-85.761 59.378-118.67 13.214-15.701 328.43-330.2 339.71-338.94 42.653-33.037 93.03-53.698 147.33-60.425 15.492-1.9191 54.184-1.9342 68.695-.0269 55.856 7.3414 105.74 28.236 149.08 62.449 17.79 14.042 45.626 42.567 50.524 51.774 14.599 27.444 9.6649 60.537-12.3 82.502-20.433 20.433-48.741 25.995-76.666 15.062-9.1839-3.5955-9.9803-4.2145-30.958-24.064-20.487-19.385-29.212-25.774-47.042-34.446-52.438-25.504-113.56-19.655-159.64 15.275-13.569 10.286-320.34 317.82-328.12 328.93-36.692 52.432-37.945 120.77-3.1852 173.74 42.099 64.143 124.14 87.678 193.67 55.555 23.426-10.823 26.031-13.159 126.8-113.73l94.866-94.673 11.134 4.7296c15.097 6.4127 29.893 10.895 47.986 14.537 12.842 2.5848 19.311 3.0491 42.482 3.0491 23.251 0 29.624-.46037 42.667-3.0822 12.673-2.5474 36.392-9.7075 47.134-14.228 3.4546-1.4539-281.7 282.7-293.13 292.1-29.998 24.676-72.752 46.172-111.01 55.813-23.304 5.873-34.283 7.3581-68.327 9.2428-4.0333.2233-14.833-.041-24-.5865zm422.67-422.67c-59.636-3.5512-116.98-25.619-164.9-63.462-14.226-11.234-42.075-38.918-47.732-47.449-7.7595-11.701-10.41-20.986-10.554-36.977-.10253-11.326.45281-15.683 2.908-22.811 11.885-34.508 47.258-54.187 82.473-45.883 15.075 3.5549 21.275 7.566 41.958 27.141 21.107 19.977 32.226 28.114 49.438 36.18 51.233 24.008 112.31 17.81 156.7-15.904 6.0534-4.5969 75.645-73.256 167.2-164.97 162.24-162.51 163.39-163.72 174.16-185.09 6.4176-12.732 12.035-31.225 14.446-47.557 11.985-81.199-44.315-158.55-126.11-173.25-14.057-2.5266-42.088-2.1837-55.728.68175-21.409 4.4975-38.415 11.544-56.939 23.592-8.6301 5.6134-28.781 25.007-105.54 101.57l-94.878 94.635-11.122-4.7244c-15.085-6.4077-29.885-10.891-47.974-14.532-12.857-2.5878-19.285-3.0476-42.482-3.0393-33.852.012-53.534 3.4292-81.333 14.121l-10 3.8462 140-140.14c77-77.079 145.4-144.69 152-150.25 42.244-35.569 95.894-58.541 153.33-65.657 15.492-1.9191 54.184-1.9342 68.695-.026896 34.604 4.5482 65.944 13.967 95.746 28.774 30.21 15.01 53.144 31.369 76.614 54.648 74.153 73.553 103.33 179.83 77.51 282.3-10.056 39.901-31.72 82.226-58.186 113.67-13.214 15.701-328.43 330.2-339.71 338.94-31.155 24.131-70.948 43.703-107.67 52.958-23.304 5.873-34.283 7.3581-68.327 9.2428-4.0333.22328-14.833-.0407-24-.58649z"/>
	</g>
</svg>
