<svg width="225" height="225" version="1.1" viewBox="0 0 225 225" xmlns="http://www.w3.org/2000/svg">
	<g transform="translate(.16353 -.13813)">
		<path d="m15.5 218.51c-4.8902-1.7427-8.0893-5.2685-9.4857-10.454-.71298-2.6478-.96684-34.284-.78425-97.734.26564-92.312.30267-93.875 2.3054-97.284 1.1195-1.9055 3.5945-4.3805 5.5-5.5 3.4197-2.009 4.7098-2.0354 99.465-2.0354 94.755 0 96.045.0264 99.465 2.0354 1.9055 1.1195 4.3805 3.5945 5.5 5.5 2.009 3.4197 2.0354 4.7098 2.0354 99.465 0 94.755-.0264 96.045-2.0354 99.465-1.1195 1.9055-3.5945 4.3805-5.5 5.5-3.4113 2.0041-4.9178 2.0387-97.965 2.2518-79.666.18247-95.128-.007-98.5-1.209z" fill="#0075b3"/>
		<path d="m60.541 70.123c13.191-5.9918 14.953-23.679 3.207-32.188-18.586-13.464-40.554 12.814-23.848 28.527 6.069 5.7082 13.308 6.992 20.641 3.6609zm60.645 87.1c.31221-31.649.32378-31.8 2.8135-36.632 3.2-6.2105 7.4311-8.5879 15.284-8.5879 7.3923 0 11.105 1.934 13.956 7.2706 2.1927 4.1038 2.2694 5.2023 2.5826 37.004l.32283 32.774 32.354-.54884-.0397-35c-.0261-23.005-.44816-36.999-1.2315-40.834-4.2986-21.041-16.619-30.456-38.598-29.495-11.166.48836-18.174 3.4397-24.523 10.327l-4.1085 4.4572v-12.955h-32v51.333c0 28.233.3 51.633.66667 52 .36667.36667 7.7631.66667 16.437.66667h15.77zm-52.186-20.245v-52.025l-32.5.54954-.26016 50.5c-.14309 27.775-.04471 51.062.21862 51.75.35549.92811 4.6071 1.25 16.51 1.25h16.031z" fill="#fff"/>
	</g>
</svg>
