<svg width="700" height="600" version="1.1" viewBox="0 0 700 600" xmlns="http://www.w3.org/2000/svg">
	<path d="m0 300v-300h700v600h-700z" fill="#f4ffff"/>
	<path d="m0 300v200h200v-200zm126.14 44.496c7.8125 0 14.87 3.3221 19.82 8.6426 6.1862-1.226 11.998-3.5054 17.244-6.6426-2.0263 6.3925-6.3322 11.759-11.939 15.143 5.4934-.65892 10.727-2.1299 15.6-4.3066-3.6395 5.491-8.246 10.31-13.551 14.168 1.7141 38.499-26.768 81.424-77.191 81.424-15.335 0-29.611-4.5348-41.629-12.301 14.405 1.7112 28.789-2.3144 40.205-11.336-11.881-.21959-21.913-8.1321-25.367-19.006 4.2543.81955 8.44.57893 12.262-.4668-13.062-2.6488-22.074-14.506-21.781-27.186 3.6623 2.0488 7.852 3.2823 12.305 3.4199-12.096-8.143-15.521-24.24-8.4043-36.543 13.39 16.561 33.398 27.457 55.971 28.602-3.9583-17.125 8.9294-33.611 26.457-33.611z" fill="#1e9fef"/>
	<path d="m549.95 379.7c-12.437-3.5132-20.732-14.031-21.229-26.919l-.22107-5.7228-22-10.64c-29.066-14.057-26.214-13.111-31.454-10.438-6.0308 3.0767-14.248 3.6883-21.445 1.5962-6.9782-2.0286-13.61-7.7531-17.415-15.032-6.8526-13.111-.57694-31.423 13.313-38.848 5.9453-3.1779 18.272-3.07 25.309.22156l5.1608 2.414 19.265-9.3227c10.596-5.1275 21.569-10.382 24.385-11.678l5.1197-2.3549.11414-5.0663c.24576-10.908 5.6673-19.967 15.147-25.308 4.8916-2.756 6.385-3.0966 13.5-3.0794 6.6995.0162 8.8128.44921 13 2.6636 10.807 5.7154 16.045 14.364 15.937 26.317-.0764 8.4768-2.5416 14.605-8.1193 20.182-6.1508 6.1508-10.457 7.8065-20.318 7.8125-8.8918.005-14.479-1.8873-19.632-6.6504-2.3958-2.2147-.46865-2.9699-34.628 13.569-13.436 6.5054-13.743 6.7257-13.068 9.3742.88835 3.4837.88835 10.941 0 14.425-.67538 2.6485-.36817 2.8689 13.068 9.3742 34.159 16.539 32.232 15.784 34.628 13.569 4.5278-4.1855 10.925-6.6209 18.396-7.0036 6.312-.32331 7.9902-.0173 12.794 2.3332 11.231 5.4949 16.894 14.224 16.876 26.015-.0125 8.4764-2.7946 15.496-8.2473 20.808-7.1573 6.973-18.864 10.036-28.238 7.3881z" fill="#7d7d7d"/>
	<path d="m0 100v200h308v-75.801h-25.197v-29.129h25.197v-21.484c0-24.945 15.209-38.543 37.504-38.543 10.628 0 19.8.80391 22.496 1.166v26.031l-15.453.04102c-12.113 0-14.449 5.7533-14.449 14.162v18.627h28.855l-3.7422 29.129h-25.113v75.801h61.902v-200h-400z" fill="#4065b0"/>
</svg>
