<svg width="45" height="39.428" enable-background="new 0 0 39.428 39.428" version="1.1" viewBox="0 0 45 39.428" xml:space="preserve" xmlns="http://www.w3.org/2000/svg">
	<path d="m41.571 8.467c-.578-.751-1.514-1.199-2.502-1.199-.688 0-1.354.222-1.881.625l-22.191 17.049-6.95-6.487c-1.172-1.096-3.325-1.02-4.417.152-.569.61-.867 1.405-.84 2.241.029.833.382 1.607.992 2.176l8.887 8.295c.582.543 1.34.842 2.133.842.693 0 1.352-.225 1.904-.648l24.292-18.663c1.364-1.048 1.623-3.015.573-4.383z" fill="#00e400" stroke="#008000" stroke-width="2"/>
</svg>
