<svg clip-rule="evenodd" fill-rule="evenodd" stroke-linejoin="round" stroke-miterlimit="1.4142" version="1.1" viewBox="0 0 1062 1062" xml:space="preserve" xmlns="http://www.w3.org/2000/svg"><path d="m1027.7 160.85c0-25.137-20.377-45.512-45.514-45.512h-902.35c-25.137 0-45.514 20.376-45.514 45.512v740.29c0 25.137 20.377 45.512 45.514 45.512h902.35c25.137 0 45.514-20.376 45.514-45.512z" fill="mediumpurple" stroke="#696969" stroke-width="6.6211"/><path d="m1027.7 160.85v91.202h-993.38v-91.202c.001-25.137 20.379-45.512 45.514-45.512h902.35c25.135 0 45.512 20.376 45.514 45.512z" fill="#d9d6d4" stroke-width="1.3242"/><path d="m123.97 138.99c24.69-1.5613 45.971 17.188 47.532 41.877 1.5613 24.69-17.188 45.971-41.877 47.532-24.69 1.5613-45.971-17.187-47.532-41.877-1.5613-24.69 17.189-45.971 41.877-47.532z" fill="#f53939" stroke-width="1.3242"/><path d="m241.02 138.99c24.69-1.5613 45.971 17.188 47.532 41.877 1.5613 24.69-17.188 45.971-41.879 47.532-24.689 1.5613-45.971-17.187-47.532-41.877-1.5613-24.69 17.188-45.971 41.879-47.532z" fill="#ea9b38" stroke-width="1.3242"/><path d="m358.07 138.99c24.69-1.5613 45.971 17.188 47.532 41.877 1.5613 24.69-17.187 45.971-41.877 47.532s-45.971-17.187-47.532-41.877 17.188-45.971 41.877-47.532z" fill="#8cc666" stroke-width="1.3242"/></svg>
