<svg width="250.01" height="250.01" version="1.1" viewBox="0 0 14222 14222" xml:space="preserve" xmlns="http://www.w3.org/2000/svg">
	<defs>
		<linearGradient id="FBlogo-grad" x1="7111.2" x2="7111.2" y1="13806" y2="-.4" gradientTransform="translate(0 .4)" gradientUnits="userSpaceOnUse">
			<stop stop-color="#0062E0" offset="0"/>
			<stop stop-color="#19AFFF" offset="1"/>
		</linearGradient>
	</defs>
  <path id="Rounded" d="m1580.2 14222h11062c872.73 0 1580.2-707.49 1580.2-1580.2v-11062c0-872.73-707.49-1580.2-1580.2-1580.2h-11062c-872.73 0-1580.2 707.49-1580.2 1580.2v11062c0 872.73 707.49 1580.2 1580.2 1580.2z" fill="url(#FBlogo-grad)" fill-rule="evenodd"/>
  <path d="m9754.2 9167.2 315-2056h-1972v-1334c0-562 275-1111 1159-1111h897v-1750s-814-139-1592-139c-1624 0-2686 984-2686 2767v1567h-1806v2056h1806v5055h2222v-5055z" fill="#fff"/>
</svg>
