<svg id="Editable-line" width="500" height="500" enable-background="new 0 0 32 32" version="1.1" viewBox="0 0 32 32" xml:space="preserve" xmlns="http://www.w3.org/2000/svg">
	<path id="XMLID_242_" d="m27.758 10.366-1-1.732c-.552-.957-1.775-1.284-2.732-.732l-.526.304c-2 1.154-4.5-.289-4.5-2.598v-.608c0-1.105-.895-2-2-2h-2c-1.105 0-2 .895-2 2v.608c0 2.309-2.5 3.753-4.5 2.598l-.526-.304c-.957-.552-2.18-.225-2.732.732l-1 1.732c-.552.957-.225 2.18.732 2.732l.526.304c2 1.155 2 4.041 0 5.196l-.526.304c-.957.552-1.284 1.775-.732 2.732l1 1.732c.552.957 1.775 1.284 2.732.732l.526-.304c2-1.155 4.5.289 4.5 2.598v.608c0 1.105.895 2 2 2h2c1.105 0 2-.895 2-2v-.608c0-2.309 2.5-3.753 4.5-2.598l.526.304c.957.552 2.18.225 2.732-.732l1-1.732c.552-.957.225-2.18-.732-2.732l-.526-.304c-2-1.155-2-4.041 0-5.196l.526-.304c.957-.552 1.285-1.775.732-2.732z" fill="gray" stroke="dimgray" stroke-linecap="round" stroke-linejoin="round" stroke-miterlimit="10" stroke-width="1"/>
	<circle id="XMLID_224_" cx="16" cy="16" r="5" fill="white" stroke="dimgray" stroke-linecap="round" stroke-linejoin="round" stroke-miterlimit="10" stroke-width="1"/>
</svg>
