<svg width="450" height="450" enable-background="new 0 0 32 32" version="1.1" viewBox="0 0 25.048 27" xml:space="preserve" xmlns="http://www.w3.org/2000/svg">
	<defs>
		<radialGradient id="radial-grad" cx="12.5" cy="13.5" r="16" gradientTransform="matrix(16.667 0 0 16.667 16.267 0)" gradientUnits="userSpaceOnUse">
			<stop stop-color="#d3d3d3" offset="0"/>
			<stop stop-color="dimgray" offset=".35"/>
			<stop stop-color="dimgray" offset=".5"/>
			<stop stop-color="#a9a9a9" offset="1"/>
		</radialGradient>
	</defs>
	<path transform="matrix(.06 0 0 .06 -.976 0)" d="m208.33 8.334c-18.417 0-33.334 14.915-33.334 33.332v10.135c0 38.483-41.667 62.549-75 43.299l-8.7676-5.0664c-15.95-9.2-36.333-3.7508-45.533 12.199l-16.666 28.867c-9.2 15.95-3.7508 36.333 12.199 45.533l8.7676 5.0664c33.333 19.25 33.333 67.352 0 86.602l-8.7676 5.0664c-15.95 9.2-21.399 29.583-12.199 45.533l16.666 28.867c9.2 15.95 29.583 21.399 45.533 12.199l8.7676-5.0664c33.333-19.25 75 4.8155 75 43.299v10.135c0 18.417 14.917 33.332 33.334 33.332h33.332c18.417 0 33.334-14.915 33.334-33.332v-10.135c0-38.483 41.667-62.549 75-43.299l8.7676 5.0664c15.95 9.2 36.333 3.7508 45.533-12.199l16.666-28.867c9.2-15.95 3.7508-36.333-12.199-45.533l-8.7676-5.0664c-33.333-19.25-33.333-67.352 0-86.602l8.7676-5.0664c15.95-9.2 21.416-29.583 12.199-45.533l-16.666-28.867c-9.2-15.95-29.583-21.399-45.533-12.199l-8.7676 5.0664c-33.333 19.233-75-4.8155-75-43.299v-10.135c0-18.417-14.917-33.332-33.334-33.332h-33.332zm16.266 150a66.667 66.667 0 0 1 66.668 66.666 66.667 66.667 0 0 1-66.668 66.666 66.667 66.667 0 0 1-66.666-66.666 66.667 66.667 0 0 1 66.666-66.666z" fill="url(#radial-grad)" stroke-width="16.667"/>
</svg>
