<svg width="1306.7" height="1306.7" version="1.1" viewBox="0 0 1306.7 1306.7" xmlns="http://www.w3.org/2000/svg">
	<path d="m616.86 1305.3c-152.83-9.5669-292.58-68.46-404.26-170.35-180.42-164.62-253.38-417.08-189.08-654.3 21.626-79.786 62.759-161.87 114.25-228 93.147-119.63 225.28-203.42 372.9-236.46 93.058-20.833 190.8-20.863 285.66-.08626 86.918 19.038 175.72 59.999 248.34 114.55 120.46 90.486 206.16 219.58 242.05 364.64 30.219 122.13 25.261 246.59-14.576 365.86-81.516 244.06-300.55 417.89-557.03 442.06-27.396 2.5819-74.359 3.5767-98.249 2.0812zm99.141-83.263c28.145-3.3985 48.016-6.9913 74-13.379 101.41-24.93 192.79-76.61 267.42-151.25 138.64-138.64 196.24-335.32 154.41-527.21-31.31-143.62-118.67-270.72-243.17-353.78-76.649-51.134-164.15-82.335-260-92.707-21.105-2.284-89.646-2.2779-110.67.009752-135.55 14.752-254.02 70.987-348.75 165.54-73.708 73.572-125.49 164.52-150.62 264.52-12.188 48.507-16.625 85.74-16.625 139.53 0 42.667 1.2663 58.994 7.3937 95.333 24.297 144.09 103.92 274.28 221.94 362.88 81.99 61.548 185.61 101.79 286 111.06 8.4333.7789 17.733 1.651 20.667 1.938 13.144 1.2861 81.019-.4362 98-2.4866zm-82.379-163.41c-29.511-7.7319-51.407-29.799-58.991-59.454-2.5635-10.023-2.6288-15.612-2.6062-223.07.0197-181.12.31203-214.15 1.9641-221.95 6.1374-28.969 29.743-53.438 58.694-60.843 38.83-9.931 79.316 9.5471 95.112 45.76 7.0701 16.208 6.8745 9.4331 6.8495 237.19-.0257 235.16.53853 220.66-9.369 240.76-16.292 33.052-55.817 50.994-91.654 41.605zm2.6575-651.25c-31.175-7.1018-55.718-31.865-62.279-62.839-3.9111-18.462-1.5466-35.45 7.4837-53.769 20.415-41.414 73.624-56.28 114.08-31.875 38.215 23.051 50.107 75.274 25.73 112.99-10.155 15.711-26.24 27.993-43.963 33.568-11.318 3.56-30.029 4.4378-41.055 1.926z" fill="purple" stroke-width="1.3333"/>
</svg>
