<svg width="500" height="500" version="1.1" viewBox="0 0 790 403.6" xml:space="preserve" xmlns="http://www.w3.org/2000/svg">
	<g transform="rotate(90,416.6,373.4)">
		<path transform="rotate(-90,416.6,373.4)" d="m201.8 0c-8.35 0-16.702 3.1996-23.102 9.5996l-169.1 169.1c-6.2 6.1-9.5996 14.402-9.5996 23.102s3.3996 17 9.5996 23.1l169.1 169.1c12.8 12.8 33.401 12.8 46.201 0s12.8-33.399 0-46.199l-113.4-113.3h567l-113.4 113.3c-6.4 6.4-9.5996 14.7-9.5996 23.1s3.1996 16.7 9.5996 23.1c12.8 12.8 33.401 12.8 46.201 0l169.1-169.1c6.2-6.1 9.5996-14.4 9.5996-23.1s-3.3996-17.002-9.5996-23.102l-169.1-169.1c-12.8-12.8-33.401-12.8-46.201 0-12.8 12.8-12.8 33.401 0 46.201l113.4 113.3h-567l113.4-113.3c6.4-6.4 9.5996-14.702 9.5996-23.102s-3.1996-16.7-9.5996-23.1c-6.4-6.4-14.75-9.5996-23.1-9.5996z" fill="red"/>
	</g>
</svg>
