<svg
   width="90"
   height="90"
   viewBox="0 0 90 90"
   fill="#ffffff"
   version="1.1"
   id="svg4"
   xmlns:xlink="http://www.w3.org/1999/xlink"
   xmlns="http://www.w3.org/2000/svg"
   xmlns:svg="http://www.w3.org/2000/svg">
  <defs
     id="defs8">
    <linearGradient
       id="linearGradient2940">
      <stop
         style="stop-color:#6364ff;stop-opacity:1;"
         offset="0"
         id="stop2936" />
      <stop
         style="stop-color:#563acc;stop-opacity:1;"
         offset="1"
         id="stop2938" />
    </linearGradient>
    <linearGradient
       id="linearGradient954">
      <stop
         style="stop-color:#ffffff;stop-opacity:1;"
         offset="0"
         id="stop952" />
    </linearGradient>
    <linearGradient
       id="linearGradient948">
      <stop
         style="stop-color:#000000;stop-opacity:1;"
         offset="0"
         id="stop946" />
    </linearGradient>
    <linearGradient
       xlink:href="#linearGradient2940"
       id="linearGradient2942"
       x1="0"
       y1="45"
       x2="90"
       y2="45"
       gradientUnits="userSpaceOnUse"
       gradientTransform="translate(0,-90)" />
  </defs>
  <rect
     style="fill:url(#linearGradient2942);fill-opacity:1;fill-rule:evenodd;stroke-width:2.60378"
     id="rect289"
     width="90"
     height="90"
     x="0"
     y="-90"
     ry="9"
     transform="rotate(90)" />
  <path
     d="m 81.701394,23.377226 c -1.1398,-8.33886 -8.524,-14.9104397 -17.2774,-16.1838397 -1.4768,-0.21517 -7.0723,-0.99826 -20.0339,-0.99826 h -0.0968 c -12.9652,0 -15.7468,0.78309 -17.2236,0.99826 -8.5097,1.23812 -16.28093,7.1430197 -18.1663942,15.5806397 -0.9068846,4.1553 -1.003667,8.7621 -0.835194,12.9879 0.240163,6.0601 0.286762,12.1096 0.845948,18.1451 0.38658,4.009 1.06096,7.9861 2.0180902,11.9015 1.79226,7.2312 9.04735,13.249 16.15545,15.704 7.6103,2.5603 15.7945,2.9854 23.6364,1.2276 0.8626,-0.1976 1.7158,-0.4268 2.5593,-0.6879 1.9034,-0.5961 4.1366,-1.2628 5.7783,-2.4339 0.0225,-0.0164 0.041,-0.0376 0.054,-0.0621 0.013,-0.0244 0.0203,-0.0514 0.0212,-0.079 v -5.8484 c -4e-4,-0.0258 -0.0066,-0.0512 -0.0183,-0.0743 -0.0116,-0.0231 -0.0283,-0.0433 -0.049,-0.0592 -0.0206,-0.0159 -0.0446,-0.027 -0.0701,-0.0326 -0.0256,-0.0056 -0.0521,-0.0055 -0.0776,3e-4 -5.0242,1.181 -10.1727,1.773 -15.3382,1.7637 -8.8896,0 -11.2805,-4.1518 -11.9652,-5.8802 -0.5503,-1.4938 -0.8998,-3.0521 -1.0395,-4.6351 -0.0014,-0.0265 0.0036,-0.0531 0.0145,-0.0774 0.0109,-0.0244 0.0276,-0.0458 0.0485,-0.0627 0.021,-0.0168 0.0457,-0.0285 0.0721,-0.0342 0.0264,-0.0057 0.0538,-0.0052 0.08,0.0015 4.9405,1.173 10.005,1.765 15.0873,1.7637 1.2223,0 2.441,0 3.6634,-0.0317 5.1115,-0.1411 10.499,-0.3986 15.5281,-1.3652 0.1255,-0.0246 0.2509,-0.0458 0.3585,-0.0776 7.9325,-1.4991 15.4815,-6.2047 16.2486,-18.1203 0.0287,-0.4691 0.1004,-4.9137 0.1004,-5.4005 0.0036,-1.6543 0.5413,-11.7357 -0.0789,-17.9298 z m -12.2089,29.7326 h -8.3411 v -20.1063 c 0,-4.2329 -1.7923,-6.3917 -5.4378,-6.3917 -4.0075,0 -6.0148,2.5538 -6.0148,7.5981 v 11.0055 h -8.291 v -11.0055 c 0,-5.0443 -2.0109,-7.5981 -6.0184,-7.5981 -3.624,0 -5.4342,2.1588 -5.4378,6.3917 v 20.1063 h -8.334 v -20.7166 c 0,-4.2329 1.0981,-7.5957 3.2942,-10.0884 2.2654,-2.4868 5.237,-3.7637 8.9255,-3.7637 4.2691,0 7.4952,1.6155 9.6459,4.8431 l 2.0755,3.4287 2.079,-3.4287 c 2.1507,-3.2276 5.3768,-4.8431 9.6388,-4.8431 3.6849,0 6.6564,1.2769 8.929,3.7637 2.1962,2.4904 3.2942,5.8532 3.2942,10.0884 z"
     fill="inherit"
     id="path2" />
</svg>
