<svg width="48px" height="48px" enable-background="new 0 0 48 48" version="1.1" viewBox="0 0 48 48" xml:space="preserve" xmlns="http://www.w3.org/2000/svg">
<path d="m2.57 35.902.002-23.8 20.998-10.005 21.857 10.007.003 23.798-21.857 9.994z" fill="#FFB280"/><path d="m45.427 12.104.003-.007-21-10s-.117-.097-.43-.097-.43.097-.43.097l-21 10s.001.004.002.005c-.079.034-.572.302-.572.898v22c0 .397.236.735.573.896l-.003.006 21 10 .003-.006c.131.063.273.104.427.104s.296-.041.427-.104l.003.006 21-10-.003-.006c.337-.161.573-.499.573-.896v-22c0-.219-.128-.684-.573-.896zm-21.427-7.997 5.374 2.56-18.674 8.892-5.374-2.559zm-1 39.309-19-9.048v-19.784l6 2.857v10.559c0 .421.262.777.63.925l-.001.004 4.981 1.992c-.222-.094.145.079.39.079.553 0 1-.447 1-1v-9.226l6 2.857zm1-21.523-5.475-2.607 18.84-8.813 5.309 2.527zm20 12.475-19 9.048v-19.784l19-9.048z" fill="#384d68"/></svg>
