<svg width="75" height="75" version="1.1" viewBox="0 0 75 75" xmlns="http://www.w3.org/2000/svg">
	<g transform="matrix(2.0833,0,0,2.0833,6e-4,6e-4)" fill="none" fill-rule="evenodd">
		<g id="Footer---12-Col" transform="translate(-1330,-635)">
			<g transform="translate(0,593)">
				<g id="Social-links" transform="translate(1175,41)">
					<g transform="translate(155,1)">
						<rect width="36" height="36" rx="4" fill="#cd1d20"/>
						<path id="Icon/Social/Pinterest" d="m18.315 7.2941c2.3789 0 4.3392.74155 5.8811 2.2247s2.3128 3.2085 2.3128 5.1762c0 2.5844-.65344 4.7136-1.9604 6.3877-1.3069 1.674-2.9882 2.511-5.0441 2.511-.67548 0-1.3142-.15418-1.9163-.46256-.60206-.30837-1.0206-.6975-1.2555-1.1674-.49927 1.9971-.79295 3.1865-.88106 3.5683-.32306 1.1454-1.1013 2.5551-2.3348 4.2291-.05874.05874-.12482.08076-.19824.06608s-.11013-.05139-.11013-.11013c-.23495-2.2027-.22027-3.8473.04405-4.9339l1.674-7.0485c-.29369-.558-.44053-1.2482-.44053-2.0705 0-.9398.24229-1.7327.72687-2.3789s1.0793-.96916 1.7841-.96916c.55801 0 .98385.18355 1.2775.55066s.44053.82966.44053 1.3877c0 .35242-.05874.77826-.17621 1.2775-.11748.49927-.279 1.0793-.48458 1.7401s-.35242 1.1968-.44053 1.6079c-.17621.67548-.0514 1.2555.37445 1.7401.42585.48458.9765.72687 1.652.72687 1.2041 0 2.188-.66813 2.9515-2.0044.76359-1.3363 1.1454-2.9589 1.1454-4.8678 0-1.4684-.47724-2.6652-1.4317-3.5903-.95448-.92511-2.2687-1.3877-3.9427-1.3877-1.909 0-3.4508.60939-4.6256 1.8282s-1.7621 2.6799-1.7621 4.3833c0 1.0279.279 1.8796.837 2.5551.20558.20558.279.44053.22026.70485l-.26432 1.0132c-.08811.35242-.30837.4699-.66079.35242-.58737-.23495-1.0793-.6094-1.4758-1.1233-.39648-.51395-.69016-1.094-.88106-1.7401s-.28634-1.3363-.28634-2.0705c0-.96917.19824-1.9163.59471-2.8414.39648-.92512.96182-1.7841 1.696-2.5771.73422-.79296 1.7107-1.4391 2.9295-1.9383s2.5624-.7489 4.0308-.7489z" fill="#fff"/>
					</g>
				</g>
			</g>
		</g>
	</g>
</svg>
