<?xml version="1.0" encoding="UTF-8"?>
<svg enable-background="new 0 0 57.884 57.884" version="1.1" viewBox="0 0 57.884 57.884" xml:space="preserve" xmlns="http://www.w3.org/2000/svg">
	<path d="m44.272 36.222c-2.7441 0-5.2047 1.1826-6.921 3.06l-14.909-7.1712c.3564-.9927.5598-2.0538.5598-3.1689 0-1.1133-.2043-2.1762-.5598-3.1689l14.909-7.1694c1.7163 1.8765 4.1796 3.0618 6.921 3.0618 5.1831 0 9.3861-4.2021 9.3861-9.3852 0-5.184-4.203-9.3861-9.3861-9.3861-5.184 0-9.3861 4.2021-9.3861 9.3861 0 .4968.0504.981.1251 1.4571l-15.872 7.6311c-1.5516-1.134-3.4578-1.8108-5.5269-1.8108-5.1831 0-9.3852 4.2012-9.3852 9.3825 0 5.1858 4.2021 9.387 9.3852 9.387 2.0691 0 3.9753-.6768 5.526-1.8126l15.871 7.6329c-.0738.4761-.1251.9603-.1251 1.4571 0 5.184 4.203 9.3852 9.387 9.3852 5.1831 0 9.3852-4.2012 9.3852-9.3852 0-5.1831-4.2012-9.3825-9.3843-9.3825z" stroke-width=".9" fill="slateblue"/>
</svg>
