<svg version="1.1" viewBox="0 0 72 72" xmlns="http://www.w3.org/2000/svg">
	<defs>
		<linearGradient id="A" x1="46.136" x2="28.836" y1="11.536" y2="51.9" gradientUnits="userSpaceOnUse">
			<stop stop-color="#37aee2" offset="0"/>
			<stop stop-color="#1e96c8" offset="1"/>
		</linearGradient>
	</defs>
	<g fill="none" fill-rule="evenodd">
		<g id="Social-Icons---Rounded" transform="translate(-264,-43)">
			<g transform="translate(264,43)">
				<path id="Rounded" d="m8 72h56c4.4183 0 8-3.5817 8-8v-56c0-4.4183-3.5817-8-8-8h-56c-4.4183 0-8 3.5817-8 8v56c0 4.4183 3.5817 8 8 8z" fill="url(#A)"/>
				<path d="m16.718 33.656 26.182-10.787c2.5845-1.1237 11.349-4.7195 11.349-4.7195s4.0453-1.5732 3.7082 2.2474c-.11237 1.5732-1.0113 7.0793-1.9103 13.035l-2.8092 17.642s-.22474 2.5845-2.135 3.034c-1.9103.44948-5.0566-1.5732-5.6185-2.0227-.44948-.33711-8.4277-5.3937-11.349-7.8659-.78659-.67422-1.6855-2.0227.11237-3.5958 4.0453-3.7082 8.8772-8.3154 11.799-11.237 1.3484-1.3484 2.6969-4.4948-2.9216-.67422l-15.844 10.675s-1.7979 1.1237-5.169.11237c-3.3711-1.0113-7.304-2.3598-7.304-2.3598s-2.6969-1.6855 1.9103-3.4835z" fill="#fff" stroke-width="1.1237"/>
			</g>
		</g>
	</g>
</svg>
