<svg version="1.1" viewBox="0 0 72 72" xmlns="http://www.w3.org/2000/svg">
	<g transform="translate(-152 -267)">
		<g transform="translate(152 267)">
			<path id="Rounded" d="m8 72h56c4.4183 0 8-3.5817 8-8v-56c0-4.4183-3.5817-8-8-8h-56c-4.4183 8.1162e-16-8 3.5817-8 8v56c5.4108e-16 4.4183 3.5817 8 8 8z" fill="#34455D"/>
			<path d="m47.741 50.341c-.87355.42569-2.5441.79606-3.7899.82793-3.7611.10281-4.491-2.6993-4.5213-4.7307v-14.943h9.4343v-7.268h-9.4016v-12.227h-6.8798c-.11328 0-.31099.10131-.33895.35835-.4025 3.7422-2.1161 10.31-9.2433 12.937v6.2001h4.7547v15.683c0 5.3701 3.8767 12.999 14.111 12.819 3.453-.060426 7.2879-1.5371 8.1347-2.8121l-2.2593-6.8441" fill="#fff"/>
		</g>
	</g>
</svg>
