<svg width="600" height="600" version="1.1" viewBox="0 0 600 600" xmlns="http://www.w3.org/2000/svg">
	<defs>
		<linearGradient id="a" x1="609.77" x2="609.77" y1="1190.1" y2="21.084" gradientTransform="matrix(.41819 0 0 .41819 45.002 46.746)" gradientUnits="userSpaceOnUse">
			<stop stop-color="#20b038" offset="0"/>
			<stop stop-color="#60d66a" offset="1"/>
		</linearGradient>
	</defs>
	<path d="m66.668 600h466.66c36.819 0 66.666-29.847 66.666-66.666v-466.66c0-36.819-29.847-66.666-66.666-66.666h-466.66c-36.819 0-66.666 29.847-66.666 66.666v466.66c0 36.819 29.847 66.666 66.666 66.666z" fill="limegreen" stroke-width="8.3333"/>
	<path d="m56.659 544.44 34.38-125.53c-21.21-36.739-32.364-78.42-32.351-121.11.05559-133.57 108.76-242.24 242.33-242.24 64.826.02924 125.67 25.258 171.41 71.046 45.756 45.788 70.938 106.65 70.912 171.38-.0556 133.57-108.77 242.25-242.32 242.25-.01 0 .007 0 0 0h-.1079c-40.555-.0129-80.403-10.193-115.8-29.482z" fill="url(#a)" stroke-width=".41819"/>
	<path d="m237.35 192.77c-4.6979-10.445-9.6442-10.654-14.114-10.837-3.6558-.15682-7.841-.1472-12.02-.1472-4.1819 0-10.977 1.5716-16.724 7.8477-5.7501 6.2762-21.955 21.448-21.955 52.306 0 30.861 22.478 60.68 25.611 64.868 3.1364 4.1819 43.39 69.53 107.14 94.671 52.982 20.893 63.764 16.737 75.264 15.692 11.5-1.0455 37.108-15.169 42.335-29.816 5.2274-14.643 5.2274-27.195 3.6592-29.819-1.5682-2.6137-5.7501-4.1819-12.023-7.3183-6.2728-3.1364-37.108-18.312-42.858-20.403s-9.932-3.1364-14.114 3.1431c-4.1819 6.2728-16.195 20.396-19.854 24.578-3.6591 4.1915-7.3183 4.7142-13.591 1.5778-6.2728-3.146-26.473-9.7622-50.437-31.129-18.645-16.623-31.234-37.154-34.893-43.433-3.6591-6.2728-.39226-9.6706 2.7542-12.797 2.8161-2.8098 6.2728-7.3216 9.4092-10.984 3.1297-3.6625 4.1752-6.2762 6.2661-10.458 2.0909-4.1886 1.0455-7.8507-.52273-10.987-1.5682-3.1364-13.758-34.153-19.334-46.555z" clip-rule="evenodd" fill="#fff" fill-rule="evenodd" stroke-width=".41819"/>
	<path d="m478.62 120.39c-47.396-47.428-110.42-73.562-177.56-73.591-138.36 0-250.97 112.56-251.02 250.92-.01632 44.227 11.539 87.398 33.504 125.45l-35.611 130.03 133.07-34.893c36.663 19.994 77.943 30.531 119.95 30.547h.10863c138.34 0 250.96-112.58 251.02-250.94.023-67.054-26.065-130.1-73.454-177.53zm-177.56 386.09h-.0815c-37.444-.0196-74.163-10.072-106.19-29.077l-7.6223-4.5185-78.966 20.704 21.083-76.963-4.966-7.89c-20.886-33.21-31.913-71.589-31.896-111 .04556-115 93.635-208.55 208.72-208.55 55.73.02303 108.11 21.746 147.5 61.167 39.391 39.421 61.068 91.825 61.052 147.56-.0494 115-93.642 208.57-208.63 208.57z" fill="#fff" stroke-width=".41819"/>
</svg>
