<svg enable-background="new 0 0 512 512" version="1.1" viewBox="0 0 512 512" xml:space="preserve" xmlns="http://www.w3.org/2000/svg">
	<ellipse cx="257.34" cy="256.2" rx="248.9" ry="247.37" fill="#67cb68" style="paint-order:markers fill stroke"/>
	<path d="m16.875 215.93c8.8991-14.877 31.445-25.182 46.022-37.585s32.792-23.336 41.42-36.817c8.628-13.481 5.8774-25.926 7.6703-39.886 1.793-13.96-14.064-27.895 3.0681-43.721 17.132-15.826 66.786-37.143 87.442-39.886s12.554 14.556 10.738 26.846-17.527 29.778-20.71 40.653-5.0447 18.472 2.3011 22.244 14.31 1.9831 26.079-7.6703c11.769-9.6534 29.877-37.977 42.187-48.323s22.619-7.232 29.914-12.272.43438-15.413 12.272-16.875 38.136 5.4274 49.857 9.2044 18.013-2.3645 19.176 13.04-12.294 38.514-26.847 54.459c-14.553 15.946-51.53 8.09-69.799 16.107s-52.98 3.5324-51.391 25.312-15.649 41.988-36.817 36.818c-21.168-5.1703-18.246 34.603.76702 38.352s20.484-22.15 39.886-17.642 28 11.562 36.05 15.341c4.6306 2.1734 18.875-2.6993 29.147.7671 33.008 11.139 7.9449 35.175-9.9712 34.516s-57.522-11.633-73.635-14.574-11.535-9.0135-23.011-3.0681-33.341 20.864-40.653 36.05-3.4621 31.723.76703 46.789 9.2344 31.144 23.778 40.653 40.566-4.6564 55.993 11.505 14.434 56.421 24.545 72.868 17.77 22.861 32.982 20.71 34.107-13.052 42.954-31.448-.13667-49.369 5.3692-69.033 25.923-31.261 26.846-46.022-18.774-19.424-22.244-27.613-7.5932-16.61 3.0681-17.642 33.285 12.493 44.488 13.04 13.794-6.0159 18.409-9.9714 9.7469-5.183 8.4373-13.04-19.621-17.772-15.341-28.38 21.753-16.09 32.982-15.341 18.979 27.534 28.38 26.846c9.4014-.68768 14.397-17.934 15.34-29.914s9.0494-24.958 16.108-6.1362 6.3919 78.621 7.6703 94.345c1.2784 15.724-48.322 172.58-162.61 191.76s-190.87-14.574-194.83-17.642c-3.963-3.0682-20.959-5.5027-23.778-18.409s13.293-33.72 9.2044-48.323-20.365-15.357-30.681-28.38c-10.316-13.023-17.686-38.889-30.681-49.09s-30.274 7.0386-40.653-6.9033-9.4514-44.235-10.738-62.13-5.8268-29.611 3.0724-44.488z" fill="dodgerblue" stroke="green" stroke-width="2"/>
	<path d="m256 12.325c-65.084 0-126.28 25.349-172.3 71.371-46.02 46.022-71.372 107.22-71.372 172.31 0 65.084 25.351 126.28 71.372 172.3 46.022 46.02 107.22 71.371 172.3 71.371 65.084 0 126.28-25.349 172.3-71.371 46.022-46.022 71.372-107.22 71.372-172.3s-25.351-126.29-71.372-172.31c-46.021-46.022-107.22-71.371-172.3-71.371zm0 .95c64.838 0 125.79 25.245 171.63 71.092 45.847 45.845 71.094 106.8 71.094 171.63s-25.247 125.79-71.094 171.63c-45.845 45.847-106.8 71.092-171.63 71.092-64.838 0-125.79-25.247-171.63-71.092-45.847-45.845-71.094-106.8-71.094-171.63 0-64.838 25.249-125.79 71.094-171.63 45.845-45.847 106.8-71.092 171.63-71.092z" color="#000000" color-rendering="auto" dominant-baseline="auto" enable-background="accumulate" image-rendering="auto" shape-rendering="auto" solid-color="#000000" stroke="blue" stroke-width="16" style="font-feature-settings:normal;font-variant-alternates:normal;font-variant-caps:normal;font-variant-ligatures:normal;font-variant-numeric:normal;font-variant-position:normal;isolation:auto;mix-blend-mode:normal;shape-padding:0;text-decoration-color:#000000;text-decoration-line:none;text-decoration-style:solid;text-indent:0;text-orientation:mixed;text-transform:none;white-space:normal"/>
</svg>
